<?xml version="1.0" encoding="UTF-8"?>
<svg xmlns="http://www.w3.org/2000/svg" version="1.1" viewBox="0 0 20.7282365 20.0375">
  <!-- Generator: Adobe Illustrator 28.7.1, SVG Export Plug-In . SVG Version: 1.2.0 Build 142)  -->
  <g>
    <g id="Layer_1">
      <path d="M0,18.8857266V1.1513641c0-.1523148.0290707-.2993051.0876216-.4405647.0585509-.1408504.1416685-.2657302.2497625-.3734148.1076845-.1080939.2325657-.1912128.3734153-.2497627.1412592-.0585515.2882505-.0876219.440974-.0876219h18.425099c.1523148,0,.2993051.0290704.4405647.0876219.1408504.0585499.2653209.1416688.3734148.2497627.1080939.1076847.1912128.2325645.2497627.3734148.0585515.1412596.0876219.2882499.0876219.4405647v17.7343625c0,.1527237-.0290704.299715-.0876219.4405646-.0585499.1412591-.1416688.2657309-.2497627.3738248-.1080939.1076845-.2325645.1912116-.3734148.249353-.1412596.0585508-.2882499.0876216-.4405647.088031H1.1517734c-.1527236-.0004094-.2997149-.0294802-.440974-.088031-.1408496-.0581414-.2657308-.1416685-.3734153-.249353-.1080939-.1080939-.1912116-.2325657-.2497625-.3738248-.0585509-.1408496-.0876216-.2878409-.0876216-.4405646" fill="#2d2b55"/>
      <g>
        <path d="M1.4837891,11.9773437l4.3579102-1.625-4.3579102-1.640625v-.9335938l5.4189453,2.1435547v.8505859l-5.4189453,2.1435547v-.9384766Z" fill="#fff"/>
        <path d="M9.9994141,6.8552734h-2.4042969v-.8710938h5.8393555v.8710938h-2.394043v6.7832031h-1.0410156v-6.7832031Z" fill="#fff"/>
        <path d="M17.884668,13.6794922c-.5634766,0-1.0004883-.1816406-1.3095703-.5458984-.3095703-.3642578-.4638672-.8759766-.4638672-1.5361328v-5.1982422h-1.5126953v-.7382812h2.4560547v5.9365234c0,.4179688.078125.7353516.2353516.9541016s.3862305.328125.6875.328125h1.1020508v.7998047h-1.1948242Z" fill="#fff"/>
      </g>
    </g>
  </g>
</svg>