<?xml version="1.0" encoding="UTF-8"?>
<svg xmlns="http://www.w3.org/2000/svg" version="1.1" viewBox="0 0 50.625 48.9375">
  <!-- Generator: Adobe Illustrator 28.7.1, SVG Export Plug-In . SVG Version: 1.2.0 Build 142)  -->
  <g>
    <g id="Layer_1">
      <path d="M0,46.125V2.8120003c0-.3720016.071-.730999.214-1.0760002.143-.3440018.346-.6489983.61-.9119987.263-.2639999.568-.4670029.9119999-.6100006.3450001-.1430016.7040001-.2140007,1.077-.2140007h44.9999998c.3720016,0,.730999.0709991,1.0760002.2140007.3440018.1429977.6479988.3460007.9119987.6100006.2639999.2630005.4670029.567997.6100006.9119987.1430016.3450012.2140007.7039986.2140007,1.0760002v43.3129997c0,.3730001-.0709991.7320001-.2140007,1.076-.1429977.345-.3460007.649-.6100006.913-.2639999.2630001-.567997.4670001-.9119987.6090001-.3450012.1429999-.7039986.214-1.0760002.2149999H2.813c-.3729999-.0009999-.7319999-.072-1.077-.2149999-.344-.142-.6489999-.346-.9119999-.6090001-.264-.2639999-.467-.568-.61-.913-.143-.3439999-.214-.7029998-.214-1.076" fill="#2d2b55"/>
      <g>
        <path d="M6.6835938,20.8774414l4.3579102-1.625-4.3579102-1.640625v-.9335938l5.4189453,2.1435547v.8505859l-5.4189453,2.1435547v-.9384766Z" fill="#fff"/>
        <path d="M15.1992188,15.7553711h-2.4042969v-.8710938h5.8393555v.8710938h-2.394043v6.7832031h-1.0410156v-6.7832031Z" fill="#fff"/>
        <path d="M22.3515625,22.6870117c-.8852539,0-1.5800781-.265625-2.0839844-.796875-.5043945-.53125-.7563477-1.2568359-.7563477-2.1767578,0-.5703125.1000977-1.0869141.2998047-1.5478516.2001953-.4619141.4975586-.828125.8920898-1.0996094.3950195-.2724609.8828125-.4082031,1.4638672-.4082031.765625,0,1.359375.2451172,1.7817383.7363281.421875.4902344.6328125,1.1699219.6328125,2.0371094v.4619141h-4.0859375v.0302734c0,.5986328.1572266,1.0751953.4716797,1.4306641s.7792969.5332031,1.3945312.5332031c.3554688,0,.699707-.0556641,1.0332031-.1689453.3330078-.1132812.6552734-.2490234.9663086-.4101562v.9384766c-.324707.1328125-.6538086.2402344-.9868164.3203125-.3334961.0800781-.6743164.1201172-1.0229492.1201172ZM23.6381836,19.1547852c0-.3173828-.0478516-.6044922-.1435547-.8613281s-.2485352-.4599609-.4584961-.6103516c-.2104492-.1503906-.4882812-.2255859-.8334961-.2255859-.3486328,0-.6396484.0761719-.8740234.2285156-.2338867.1523438-.4169922.3564453-.5483398.6123047-.1318359.2568359-.2148438.5419922-.2485352.8564453h3.1064453Z" fill="#fff"/>
        <path d="M27.8427734,19.5444336l-2.0556641-2.7480469h1.0458984l1.5224609,2.0761719,1.5126953-2.0761719h1.0615234l-2.0566406,2.7480469,2.2558594,2.9941406h-1.0917969l-1.6816406-2.3017578-1.6767578,2.3017578h-1.0917969l2.2558594-2.9941406Z" fill="#fff"/>
        <path d="M34.6972656,18.5600586c-.2324219,0-.4287109-.0800781-.5898438-.2412109-.1601562-.1601562-.2412109-.3691406-.2412109-.625,0-.2568359.0810547-.4648438.2412109-.6259766.1611328-.1601562.3574219-.2402344.5898438-.2402344s.4287109.0800781.5898438.2402344c.1601562.1611328.2412109.3691406.2412109.6259766,0,.2558594-.0810547.4648438-.2412109.625-.1611328.1611328-.3574219.2412109-.5898438.2412109ZM34.6972656,22.230957c-.2324219,0-.4287109-.0800781-.5898438-.2412109-.1601562-.1601562-.2412109-.3691406-.2412109-.625,0-.2568359.0810547-.4648438.2412109-.6259766.1611328-.1601562.3574219-.2412109.5898438-.2412109s.4287109.0810547.5898438.2412109c.1601562.1611328.2412109.3691406.2412109.6259766,0,.2558594-.0810547.4648438-.2412109.625-.1611328.1611328-.3574219.2412109-.5898438.2412109Z" fill="#fff"/>
      </g>
      <g>
        <path d="M23.0908203,36.0791016c-.5634766,0-1.0004883-.1816406-1.3095703-.5458984-.3095703-.3642578-.4638672-.8759766-.4638672-1.5361328v-5.1982422h-1.5126953v-.7382812h2.4560547v5.9365234c0,.4179688.078125.7353516.2353516.9541016s.3862305.328125.6875.328125h1.1020508v.7998047h-1.1948242Z" fill="#fff"/>
        <path d="M29.6074219,36.0791016c-.5644531,0-1-.1816406-1.3105469-.5458984-.3085938-.3642578-.4628906-.8759766-.4628906-1.5361328v-2.9628906h-1.2558594v-.7382812h2.1992188v3.7011719c0,.4179688.078125.7353516.2363281.9541016.15625.21875.3847656.328125.6855469.328125h1.1035156v.7998047h-1.1953125ZM27.8847656,29.2548828c-.1015625,0-.1542969-.0507812-.1542969-.1533203v-.8876953c0-.1015625.0527344-.1533203.1542969-.1533203h.7382812c.1035156,0,.1542969.0517578.1542969.1533203v.8876953c0,.1025391-.0507812.1533203-.1542969.1533203h-.7382812Z" fill="#fff"/>
        <path d="M34.5449219,36.1865234c-.546875,0-1.1894531-.1191406-1.9277344-.3583984v-.9746094c.7177734.3623047,1.3574219.5439453,1.9179688.5439453.3994141,0,.71875-.0839844.9589844-.2519531.2382812-.1669922.3583984-.390625.3583984-.6708984,0-.2431641-.0996094-.4384766-.2998047-.5869141-.2001953-.1494141-.5185547-.2695312-.9560547-.3613281l-.3955078-.0820312c-.5400391-.109375-.9355469-.2900391-1.1865234-.5410156-.2509766-.2519531-.3769531-.59375-.3769531-1.0283203,0-.5498047.1884766-.9736328.5644531-1.2714844s.9101562-.4462891,1.6044922-.4462891c.5878906,0,1.1572266.1132812,1.7070312.3388672v.9228516c-.5361328-.3144531-1.0966797-.4716797-1.6816406-.4716797-.8271484,0-1.2402344.2822266-1.2402344.8457031,0,.1845703.0351562.3310547.1074219.4384766s.2080078.1982422.4101562.2714844c.2011719.0732422.4990234.1494141.8925781.2285156l.3789062.0712891c.9501953.1884766,1.4257812.7060547,1.4257812,1.5537109,0,.5673828-.2021484,1.0146484-.6054688,1.3408203s-.9550781.4892578-1.65625.4892578Z" fill="#fff"/>
        <path d="M38.8466797,28.0605469h.9433594v3.0966797c.3447266-.6660156.9101562-1,1.6972656-1,.4707031,0,.8330078.109375,1.0839844.328125s.4248047.5048828.5205078.8564453c.0957031.3525391.1435547.7314453.1435547,1.1376953v3.5585938h-.9492188v-3.5585938c0-.515625-.0898438-.8945312-.2714844-1.1376953-.1806641-.2421875-.4628906-.3642578-.8457031-.3642578-.3554688,0-.6328125.0878906-.8330078.2646484-.2001953.1757812-.3408203.4023438-.4228516.6787109-.0820312.2773438-.1230469.5673828-.1230469.8720703v3.2451172h-.9433594v-7.9775391Z" fill="#fff"/>
      </g>
    </g>
  </g>
</svg>